<svg xmlns="http://www.w3.org/2000/svg" viewBox="0 0 1000 1000"><defs><style>.cls-1{fill:rgb(175, 0, 255);}</style></defs><g id="logo"><path class="cls-1" d="M446,374.33V631.52l-22.21-27.23v-230h0L446,352Z"/><path class="cls-1" d="M575.66,374.33v230L553.6,631.4l0-54.41V552.41c0-.64,0-1.28,0-1.93l-.09-176.15,0-22.38Z"/><path class="cls-1" d="M446,550.24v0Z"/><path class="cls-1" d="M545.51,362.66V522.08a54,54,0,0,0-20.6-19.2V362.66a25.13,25.13,0,1,0-50.25,0V502.88a54,54,0,0,0-20.61,19.2V362.66a45.6,45.6,0,0,1,13-32l.46-.46,32.26-32.5,31.13,31.41h0l2.66,2.68h0A45.54,45.54,0,0,1,545.51,362.66Z"/><path class="cls-1" d="M539,550.48V586l-12.19-30.7-1.92-4.84a25.65,25.65,0,0,0-4.23-14.16h0l-.58-.72a7.2,7.2,0,0,0-1.57-1.94h0A7.06,7.06,0,0,0,506.84,539V688.84l-7.06,8.67-7-8.65V539a7.06,7.06,0,0,0-11.82-5.21h0l-1.32,1.63-.49.6a25.7,25.7,0,0,0-4.43,14.47l-1.92,4.84L460.54,586V550.29a40.2,40.2,0,0,1,14.12-30.53,38.68,38.68,0,0,1,50.25,0A40.19,40.19,0,0,1,539,550.29Z"/><path class="cls-1" d="M598.48,234C486.59,192.3,356.82,227.4,281,319.43c-75.51,91.62-85.79,224.6-24.52,326.48,61,101.46,181.71,155,297.92,132.49C670.19,756,762.61,659.75,780.22,543.08A301.22,301.22,0,0,0,783.5,500v-.09C782.78,382.41,709,275.09,598.48,234ZM595,759.52c-108.84,39.85-233.74,6-307.86-82.93-74.29-89.1-84.17-219.46-24.4-318.85C322.3,258.7,440.64,206.25,554,228.93c111.72,22.34,200.27,114.18,218.61,226.6A286.48,286.48,0,0,1,776.19,500C775.51,614.71,703.2,719.91,595,759.52Z"/><path class="cls-1" d="M638.18,706l0,0v0Z"/><path class="cls-1" d="M492.59,751.9v0Z"/></g></svg>