<?xml version="1.0" encoding="UTF-8"?>
<svg id="a" data-name="Layer 1" xmlns="http://www.w3.org/2000/svg" viewBox="0 0 1949.31 1949.86">
  <defs>
    <style>
      .b {
        fill: rgb(255, 255, 255);
        stroke-width: 0px;
      }
    </style>
  </defs>
  <path class="b" d="m.11,977.27c-.33-139.54,27.34-273.39,83.72-401.1,45.5-103.06,107-195.56,185.41-276.56C397.38,167.26,551.34,79.09,729.17,32.12c53.7-14.18,108.28-23.38,163.62-28.25,38.22-3.36,76.49-4.64,114.8-3.43,142.38,4.53,277.4,38.37,404.56,102.82,83.76,42.45,159.73,96.06,227.79,160.76,114.26,108.62,198.01,237.22,251.57,385.47,23.49,65.01,39.74,131.82,48.97,200.34,6.68,49.61,9.89,99.42,8.51,149.47-3.86,139.92-35.43,273.13-97.05,399.01-46.74,95.48-107.39,181.15-181.65,257.2-77.26,79.12-165.2,143.71-264.02,193.33-82.31,41.33-168.8,70.24-259.56,86.29-44.5,7.87-89.3,12.7-134.48,14.17-160.21,5.23-312.66-26.87-457.48-95.32-94.87-44.84-180.42-103.46-256.49-175.73-83.68-79.51-151.12-171.06-201.66-274.89-40.38-82.96-68.05-170.03-83.36-261.04-7.27-43.25-11.89-86.75-13.1-130.59-.32-11.48-.05-22.97-.05-34.46Zm978.16,947.1c531.96.07,940.55-436.4,945.72-944.49C1929.3,458.23,1497.74,24.28,978.78,24.55,476.26,24.8,31.89,415.96,24.86,958.22c-7.31,563.64,440.14,965.34,953.41,966.16Z"/>
  <path class="b" d="m246.11,976.73c1.86-423.45,339.39-735.45,743.71-729.59,398.06,5.76,714.43,337.65,711.64,733.25-2.73,387.89-319.96,725.08-728.55,722.55-386.4-2.39-726.11-306.91-726.8-726.2Zm24.92-3.26c1.75,401.64,317.34,701.52,702.22,703.94,400.55,2.52,699.74-325.07,704.11-702.31-3.88-379.37-308.2-702.14-698.09-703.51-376.42-1.32-707.4,294.91-708.24,701.88Z"/>
  <path class="b" d="m838.27,1844.98c6.48-38.09,12.81-75.29,19.23-112.99,23.24,1.5,46.38,1.56,67.67,11.74,26.63,12.73,37.43,46.54,24.66,75.63-6.48,14.78-17.33,24.89-32.83,29.17-26.4,7.3-52.39,2.79-78.73-3.55Zm19.68-8.72c13.65,3.55,26.86,5.19,40.39,2.8,35.56-6.29,51.94-46.79,29.52-73.77-14.63-17.61-35.11-19.72-56.51-19.96-4.5,30.5-8.93,60.54-13.41,90.92Z"/>
  <path class="b" d="m1085.69,118.61c4.49.92,8.82,1.8,13.33,2.73-.64,4.59-1.23,8.82-2.02,14.47,9.23-9.03,19.11-13.02,30.92-10.62,12.12,2.46,19.11,10.06,21.99,22.7,1.51-1.33,2.67-2.36,3.84-3.38,9.71-8.56,20.81-10.87,33.03-6.88,12.6,4.12,20.31,16.36,18.56,31.9-1.61,14.34-4.95,28.48-7.64,42.69-1.26,6.66-2.78,13.26-4.27,20.34-5.16-1.03-9.83-1.97-15.08-3.02.21-1.91.28-3.66.62-5.37,3.28-16.31,6.75-32.59,9.82-48.94.72-3.84.7-8.04,0-11.89-2.47-13.62-16.68-19.55-28.42-12.1-6.31,4-9.55,9.96-11,17.13-3.34,16.47-6.75,32.92-10.15,49.38-.2.96-.54,1.89-.99,3.4-4.9-.99-9.72-1.97-15.24-3.09,1.65-8.26,3.19-16.2,4.81-24.12,2.03-9.94,4.3-19.84,6.11-29.82.67-3.71.83-7.67.37-11.41-1.53-12.5-13.71-19.3-25.27-14.23-8.04,3.52-12.89,9.87-14.71,18.37-3.41,15.94-6.64,31.93-9.96,47.89-.33,1.6-.79,3.17-1.27,5.06-5.11-1.06-9.92-2.05-15.28-3.16,5.98-29.4,11.89-58.47,17.91-88.04Z"/>
  <path class="b" d="m1633.07,1529.66c3.95,3.56,6.87,6.2,10.09,9.1-2.92,3.65-5.68,7.1-8.64,10.79-.81-.48-1.53-.8-2.13-1.28-19.69-15.91-39.54-31.62-58.94-47.87-6.44-5.39-12.3-11.73-17.41-18.41-6.08-7.95-7.29-17.51-4.66-27.12,5.14-18.84,17.45-31.61,35.02-40.51,2.54,3.77,4.81,7.15,7.05,10.49-5.08,3.42-9.87,6.62-14.62,9.88-.95.65-1.77,1.52-2.6,2.33-16.32,15.96-15.64,32.19,1.97,46.84,2.27,1.89,4.62,3.67,6.76,5.37,0-4.67-.52-9.15.09-13.46,2.99-21.39,22.72-34.56,44.87-30.21,20.22,3.97,38.22,23.07,40.92,43.49,2.54,19.16-11.79,42.84-37.76,40.59Zm23.57-33.49c-.19-1.71-.23-3.56-.62-5.33-3.14-14.12-19.42-28.72-33.82-30.4-11.04-1.29-21.23,4.29-25.78,14.11-4.41,9.51-2.09,21.1,6.04,28.26,5.24,4.61,10.69,9.05,16.41,13.05,7.67,5.36,16.1,6.27,24.52,1.83,8.47-4.47,12.8-11.78,13.26-21.52Z"/>
  <path class="b" d="m1355.6,1697.07c6.53,0,12.77-.79,18.73.15,18.03,2.82,27.42,19.69,19.89,36.33-8.43,18.64-23.95,29-43.5,33.22-6.06,1.31-12.72,1.72-18.8.69-18.36-3.12-26.18-21.93-16.83-39.6,2.22-4.2,5.2-7.99,7.92-12.09-4.18-.55-8.31-.69-12.23-1.67-13.78-3.46-21.08-15.53-18.02-29.31,4.41-19.85,29.54-36.2,49.56-32.26,16.86,3.32,24.9,17.7,18.75,33.85-1.34,3.52-3.43,6.75-5.48,10.7Zm2.05,12.21c-16.08.64-24.48,6.12-28.85,19.34-4.23,12.82,2.74,24.01,16.1,25.84,12.38,1.7,27.07-6.45,32.9-18.24,4.69-9.47,1.08-19.98-8.67-24.08-3.59-1.51-7.64-1.94-11.48-2.86Zm-30.03-6.26c.98-.15,3.1-.61,5.25-.77,8.88-.67,12.16-7.3,14.75-14.25,2.54-6.8,1.07-13.1-4.07-18.38-7.09-7.29-17.83-7.09-28.1.47-7.69,5.67-10.68,13.57-8.02,21.22,2.59,7.45,9.62,11.78,20.19,11.7Z"/>
  <path class="b" d="m301.46,1497.03c-14.1,11.55-27.21,22.29-40.66,33.31-3.52-4.31-6.85-8.39-10.3-12.63,34.09-28.07,67.85-55.87,101.9-83.9,2.84,3.46,5.77,7.05,8.88,10.84-3.49,3.23-6.87,6.35-10.86,10.05,1.34.19,1.92.4,2.46.32,22.75-3.27,45.34,21.16,36.41,47.87-7.85,23.47-35.75,40.66-58.42,36.37-16.9-3.2-32.52-20.73-29.42-38.67.13-.75.02-1.54.02-3.56Zm74.45-7.39c-.6-10.93-4.92-18.09-13.04-22.67-8.62-4.86-17.51-4.3-25.52,1.08-6.6,4.43-12.79,9.62-18.54,15.12-7.81,7.46-9.38,18.94-4.65,28.02,5.14,9.86,15.19,15.13,26.19,13.08,15.08-2.8,25.87-11.68,32.86-25.09,1.71-3.28,2.09-7.25,2.71-9.54Z"/>
  <path class="b" d="m1753.98,637.68c16.87-7.81,32.49-15.04,48.6-22.5,2.3,4.96,4.5,9.68,6.86,14.75-39.97,18.63-79.56,37.09-119.29,55.62-.03-.02-.41-.14-.53-.39-1.74-3.77-5.35-8.02-4.58-11.2.69-2.84,6.23-4.5,9.62-6.7.51-.33.94-.78,2.05-1.73-9.11-1.29-16.46-4.73-22.07-11.22-11.48-13.27-12.47-31.25-2.6-45.73,11.6-17.02,36.72-26.92,56.75-22.49,23.27,5.14,36.17,31.48,25.19,51.58Zm-7.29-10.27c.02-12.85-7.26-23.09-17.98-25.37-17.01-3.63-31.23,2.5-42.49,15.03-8.26,9.19-8.22,20.96-1.14,30.76,6.39,8.84,18.19,12.4,29,8.19,6.8-2.65,13.5-5.71,19.87-9.26,8.1-4.52,12.51-11.7,12.75-19.34Z"/>
  <path class="b" d="m226.94,1176.49c-10.85-1.41-20.72-2.66-30.58-3.97-31.52-4.18-63.02-8.48-94.56-12.46-4.52-.57-6.5-2.05-7.3-6.69-2.3-13.37-2.51-13.32,9.51-20.27,32.71-18.92,65.41-37.85,98.12-56.76,1.27-.73,2.6-1.36,4.53-2.37,1.01,5.23,2.17,10.03,2.7,14.9.13,1.18-1.58,3.04-2.9,3.83-9.58,5.7-19.24,11.28-28.98,16.72-2.53,1.41-3.6,2.83-2.95,5.87,2.53,11.87,4.95,23.77,7.15,35.71.58,3.15,1.92,4.38,5.05,4.73,11.25,1.26,22.46,2.86,33.7,4.13,2.64.3,3.7,1.26,4.04,3.9.51,3.93,1.48,7.81,2.46,12.76Zm-117.28-29.5c19.99,2.35,39.65,4.65,59.83,7.02-2.45-12.34-4.8-24.15-7.26-36.55-17.75,9.97-35.01,19.66-52.57,29.52Z"/>
  <path class="b" d="m588.25,1697.86c-7.01,12.06-13.84,23.81-21.08,36.25,18.25,9.73,36.11,19.25,54.53,29.06-1.63,3.49-3.29,7.03-5.44,11.62-23.92-13.06-47.5-25.93-71.81-39.21,20.55-33.55,40.66-66.38,60.82-99.29,19.74,10.85,39.21,21.54,59.18,32.5-1.67,3.41-3.39,6.9-5.44,11.09-15.42-8.2-30.47-16.2-46.03-24.48-6.07,10.42-12.06,20.7-18.43,31.62,15.36,8.3,30.38,16.41,45.63,24.65-1.74,3.5-3.43,6.89-5.49,11.03-15.49-8.29-30.68-16.41-46.44-24.84Z"/>
  <path class="b" d="m1107.88,1775.13c.21-11.45,1.61-21.79,6.56-31.33,11.86-22.89,39.96-27.58,58.52-9.75,12.62,12.12,19.2,27.38,22.29,44.27,2.06,11.28,1.9,22.56-2.06,33.51-5.3,14.63-16.05,22.97-30.99,25.97-15.31,3.07-27.94-2-37.78-13.87-11.91-14.37-16.12-31.44-16.53-48.79Zm15.25-7.19c.3.1.59.19.89.29.43,4.47.65,8.96,1.32,13.39,2.01,13.13,5.7,25.66,14.38,36.13,4.18,5.04,9.39,8.41,16.21,8.62,12.84.4,22.18-8.13,23.5-22.12,1.94-20.45-3.55-39.18-14.32-56.43-1.81-2.91-4.34-5.53-7-7.72-10.6-8.7-24.39-5.83-29.75,6.78-2.79,6.57-3.56,14.01-5.25,21.05Z"/>
  <path class="b" d="m1744.19,1012.54c.46-5.35.88-10.26,1.35-15.76,7.51.49,14.61.9,21.69,1.44,35.18,2.67,70.35,5.41,105.53,8.04,3.03.23,4.59.87,3.97,4.45-.67,3.89-.66,7.89-.97,12.18-18.39-1.38-36.36-2.73-55.88-4.2,7.77,6.59,12.05,13.55,13.37,22.04,3.09,19.87-10.31,36.05-30.86,36.13-14.11.05-28.24-1.47-42.35-2.37-6.62-.42-13.24-1.05-20.39-1.62.4-5.27.77-10.3,1.18-15.69,2.63,0,4.92-.14,7.18.02,14.61,1.08,29.2,2.26,43.81,3.33,2.81.21,5.68.34,8.47.04,13.69-1.49,20.78-8.91,20.39-21.09-.37-11.65-10.16-21.58-22.07-22.48-17.26-1.3-34.51-2.66-51.77-4-.64-.05-1.27-.21-2.64-.45Z"/>
  <path class="b" d="m743.88,1705.15c-2.93,3.61-5.5,6.78-7.61,9.38-7.16-4.27-13.56-8.86-20.59-11.99-4.51-2.01-10.01-2.77-15-2.55-12.94.58-19.83,12.97-13.02,23.99,3.67,5.93,9.48,10.55,14.34,15.74,5.56,5.92,12.16,11.15,16.52,17.85,12.88,19.77,2.64,42.34-20.78,44.87-25.26,2.73-45.9-7.84-63.81-25.8,3.69-3.09,6.96-5.83,9.38-7.85,7.81,5.3,15.82,11.48,24.53,16.42,7.29,4.14,15.57,5.79,24.13,4.03,11.31-2.33,17-12.85,12.7-23.57-2.97-7.4-8.94-12.21-14.62-17.39-5.5-5.01-11.28-10.06-15.44-16.13-13.54-19.73-4.78-40.58,18.81-44.46,19.5-3.2,35.6,4.94,50.46,17.46Z"/>
  <path class="b" d="m339.91,410.04c18.8.09,39.17,14.59,46.61,33.17,6.52,16.29,1.95,35.25-12.03,48.25-11.35,10.55-24.72,13.94-39.72,9.62-22.25-6.4-38.67-27.15-38.27-48.11.43-22.86,20.84-43.04,43.42-42.93Zm10.6,77.33c16.35-.06,27.51-13.94,24.06-29.93-3.35-15.51-18.8-29.28-35.92-32.01-15.99-2.54-30.93,12.64-28.08,28.53,3.1,17.36,22.37,33.47,39.94,33.4Z"/>
  <path class="b" d="m1745.77,1297.04c-20.98-.04-41.9-12.7-48.12-29.8-6.2-17.05-3.26-32.95,8.61-46.61,11.44-13.16,26.52-16.14,42.78-12.09,19.66,4.9,34.72,15.53,38.69,36.94,3.91,21.07-9.64,51.65-41.97,51.56Zm2.05-16.63c13.61,0,22.7-5.82,26.5-17.01,3.74-11,.03-21.83-10.32-29.89-7.98-6.21-17.08-9.57-27.14-10.18-12.74-.77-23.56,5.61-27.8,16.21-4.11,10.26-.84,21.43,9,29.87,8.53,7.31,18.53,10.89,29.76,11Z"/>
  <path class="b" d="m583.46,289.47c-.86,17.27-10.11,30.3-26.42,38.01-15.91,7.52-31.14,5.28-44.75-5.96-16.49-13.61-24.02-36.26-17.68-54.11,5.63-15.86,17.44-25.39,33.51-29.13,16.32-3.8,29.82,2.16,40.64,14.34,8.98,10.11,14.46,21.85,14.7,36.85Zm-15.76,2.45c.02-15.54-11.36-32.8-25.59-38.78-14.34-6.03-30.86,2.68-33.95,17.9-3.14,15.49,7.59,35.87,22.93,43.54,17.89,8.96,36.58-2.61,36.61-22.66Z"/>
  <path class="b" d="m211.36,865.47c-.04,27.31-21.93,46.7-49.07,42.87-7.45-1.05-15.16-2.94-21.86-6.25-19.36-9.6-27.34-31.13-20.51-52.79,6.28-19.92,25.45-31.59,47.41-28.7,4.27.56,8.57,1.33,12.68,2.56,19.9,5.96,31.38,21.57,31.35,42.32Zm-43.73,27.81c5.99-1.76,12.38-2.71,17.88-5.44,15.66-7.78,18.65-27.17,6.03-39.29-12.27-11.79-27.2-13.99-43.14-9.43-9.86,2.82-16.48,9.29-18.11,19.81-1.73,11.21,2.57,19.88,11.93,26.03,7.57,4.98,16.07,7.03,25.4,8.31Z"/>
  <path class="b" d="m981.72,159.73c.47,37.59-32.4,53.08-59.6,44.28-8.18-2.65-14.95-7.57-19.52-14.8-11.23-17.75-12.05-36.49-2.64-55.03,8.63-17,28.97-25.11,48.74-20.8,17.81,3.89,30.71,19.08,32.54,38.38.25,2.65.32,5.31.48,7.97Zm-72.64-1.5c1.36,9.19,3.26,17.53,8.46,24.85,10.94,15.37,32.01,15.01,41.63-1.19,8.94-15.05,8.2-30.7-.84-45.42-10.26-16.7-33.94-15.83-42.91,1.57-3.18,6.18-4.29,13.43-6.34,20.19Z"/>
  <path class="b" d="m1721.6,1394.02c-.12,31.93-30.06,52.59-59.71,40.93-15.54-6.11-27.86-16.14-32.18-32.97-4.37-17.03.64-32.13,13.22-44.13,12.69-12.11,27.92-13.78,44.09-8.06,21,7.43,34.66,25.05,34.59,44.23Zm-38.57,28.35c16.82-.03,28.78-15.17,24.51-31.02-4.76-17.64-28.67-32.11-46.46-28.12-14.74,3.31-22.84,17.99-17.83,32.31,5.26,15.03,22.81,26.87,39.78,26.84Z"/>
  <path class="b" d="m262.46,1371.88c11.26,18.01,22.19,35.49,33.11,52.94,12.91-5.1,19.27-20.87,14.13-34.69-3.22-8.65-9.62-16.9-20.46-26.13,1.33-1.4,2.7-2.73,3.93-4.18,1.19-1.4,2.23-2.91,3.72-4.89,3.18,2.63,5.75,4.4,7.89,6.6,11.22,11.54,20.61,24.05,20.84,41.19.11,8.47-2.14,16.3-7.41,22.83-13.07,16.18-29.8,24.92-51,22.37-15.52-1.87-25.51-11.53-31.28-25.52-5.27-12.78-2.24-24.47,6.17-35,5.38-6.74,12.1-11.74,20.36-15.51Zm-1.66,19.52c-14.01,7.48-18,20.89-10.7,33.03,7.54,12.54,25.55,13.34,35.39,6.46-8.18-13.08-16.36-26.17-24.69-39.49Z"/>
  <path class="b" d="m1619.38,455.38c12.16-9.34,13.59-20.11,3.5-30.56-5.31-5.5-12.11-9.54-18.53-14.46,1.22-2.03,3.01-5,4.75-7.9,16.02,3.14,33.51,22.16,34.74,38.1.64,8.21-2.55,15.57-8.19,21.32-6.4,6.51-13.5,12.34-20.39,18.36-9.52,8.32-19.12,16.53-29,25.06-2.68-3.18-5.75-6.82-8.9-10.56,2.43-2.76,4.7-5.33,7.11-8.07-4.35-.92-8.49-1.29-12.25-2.68-12.31-4.55-20.6-13.07-22.35-26.35-2.37-17.97,16.62-32.86,34.97-27.86,12.77,3.49,21.99,12.1,30.69,21.44,1.23,1.32,2.44,2.65,3.86,4.18Zm-8.46,7.85c-7.18-8.48-14-16.42-24.56-19.66-6.79-2.08-12.46.23-17.19,5.12-4.02,4.15-5.47,9.07-3.53,14.68,4.33,12.53,21.64,18.19,32.44,10.46,4.31-3.09,8.21-6.75,12.84-10.6Z"/>
  <path class="b" d="m261.09,1272.68c1.83,3.95,3.76,8.13,5.76,12.45-3.2,2.15-6.03,4.05-9.5,6.37,11.53,3.14,19.36,9.54,24.03,19.65,5.36,11.61,3.49,23.41-4.94,31.19-8.92,8.23-22.57,10.44-32.78,3.68-6.62-4.39-12.27-10.57-17.44-16.73-4.1-4.89-6.79-10.95-10.11-16.49-12.54,3.95-17.23,13.97-12.19,26.08,3.35,8.06,8.87,14.37,15.89,19.43-.07.36-.03.75-.21.92-8.18,7.95-5.71,10.15-15.78.33-7.14-6.97-12.01-15.48-14.46-25.23-3.07-12.2.04-22.75,10.13-30.16,6.63-4.86,14.27-8.41,21.67-12.13,13.05-6.54,26.26-12.76,39.92-19.36Zm-35.91,33.67c4.82,7.56,8.27,13.63,12.41,19.2,2.12,2.85,5.19,5.24,8.29,7.04,6.28,3.65,12.53,2.43,18.26-1.62,4.74-3.35,7-8.01,6.03-13.83-1.7-10.12-11.29-18.98-21.48-17.92-7.48.78-14.67,4.33-23.51,7.13Z"/>
  <path class="b" d="m1782.71,883.56c-3.28-20.32-6.57-40.75-9.86-61.13-17.91,1.46-29.41,16.37-26.08,34.09,1.54,8.23,4.54,16.2,7.12,25.16-2.38,1-5.9,2.48-9.95,4.19-8.83-17.12-14.46-34.37-7.97-52.99,5.84-16.76,19.71-23.94,36.25-26.65,11.58-1.89,22.9-.78,33.5,4.72,21.84,11.33,28.32,41.32,12.72,58.71-8.16,9.09-24.24,15.44-35.72,13.9Zm9.23-16.05c9.31-1.91,17.23-5.04,21.15-13.75,3.81-8.45,2.4-16.78-3.44-23.83-6.38-7.69-15.19-9.84-25.27-9.67,2.56,15.97,5.01,31.31,7.56,47.24Z"/>
  <path class="b" d="m1279.05,265.73c-3.35-1.24-7.15-2.42-10.69-4.13-.96-.46-1.66-2.59-1.55-3.88.2-2.41,1.09-4.76,1.89-7.96-8.29,4.07-16.13,5.83-24.63,4.27-14.45-2.65-24.48-13.07-24.58-26.04-.11-14.15,9.99-25.56,24.74-28.11,11.73-2.02,22.79.91,33.8,4.33,1.73.54,3.42,1.18,5.08,1.75,6.19-9.5,3.8-20.38-5.67-25.86-7.27-4.21-15.24-5.57-23.56-5.17-1.63.08-3.26.17-5.05.27v-11.06c17.59-1.97,33.51.72,46.21,13.58,7.65,7.75,8.05,17.83,5.5,27.65-2.24,8.65-5.81,16.95-8.85,25.39-4.15,11.54-8.35,23.07-12.65,34.95Zm1.07-48.6c-10.68-4.08-20.75-8.03-31.87-5.11-6.58,1.73-10.32,6.57-11.81,12.97-1.28,5.52-.2,10.55,4.43,14.43,9.59,8.05,26.24,5.5,32.28-5.41,2.85-5.15,4.56-10.94,6.97-16.89Z"/>
  <path class="b" d="m1610.6,1564.03c-3.9,3.72-7.29,7.37-11.18,10.39-1.18.91-4.03.64-5.62-.12-20.55-9.83-41.01-19.85-61.49-29.81-.56-.27-1.14-.5-2.46-1.08,11.01,22.76,21.68,44.82,32.4,66.96-3.99,4.07-7.88,8.04-12.22,12.46-4.51-10.41-8.9-20.23-13.03-30.15-9.07-21.79-18.35-43.5-26.89-65.5-5.02-12.91-6.8-26.46-2.57-40.12,1.11-3.57,2.88-6.94,4.51-10.8,4.54,2.52,8.42,4.67,11.09,6.15-1.03,9.32-2.01,17.79-2.87,26.26-.13,1.29.31,2.63.45,3.95.95,9.08,5.41,14.52,14.31,18.15,23.86,9.71,47.27,20.54,70.85,30.94,1.36.6,2.67,1.3,4.73,2.32Z"/>
  <path class="b" d="m284.61,625.95c-1.73,3.87-3.55,7.93-5.58,12.46-3.37-.87-6.65-1.73-9.57-2.48.71,6.18,2.14,12.32,1.98,18.4-.45,16.55-13.02,29.14-27.86,28.67-14.75-.47-26.5-12.68-27.11-28.04-.43-10.9,2.46-21.08,6.35-31.07.77-1.99,1.6-3.96,2.39-5.89-10.63-6.98-21.46-4.63-27.26,6.13-2.1,3.89-3.57,8.26-4.54,12.59-.98,4.33-.98,8.87-1.47,13.88-3.22-.27-6.58-.55-10.51-.88-.99-17.81,2.68-33.78,16.77-45.5,9.12-7.59,20.03-6.43,30.41-2.66,7.95,2.88,15.53,6.81,23.3,10.21,10.79,4.72,21.6,9.38,32.71,14.2Zm-49.33-4.38c-2.33,8.02-4.84,15.36-6.49,22.89-.71,3.25-.23,7.05.7,10.32,3.22,11.41,18.75,15.78,26.47,7.67,9.4-9.88,6.56-27.67-5.53-33.94-4.42-2.29-9.06-4.16-15.15-6.93Z"/>
  <path class="b" d="m359.34,369.84c3.32-3.06,6.58-6.07,10.15-9.35,3.5,3.16,6.78,6.11,10.71,9.66,0-4.8-.47-8.89.08-12.83,2.78-19.81,26.86-38.64,50.53-21.3,6.9,5.05,12.65,11.75,18.62,17.98,9.19,9.6,18.13,19.45,27.43,29.47-4.03,3.77-7.76,7.26-11.91,11.15-8.08-8.67-15.89-17.23-23.89-25.6-6.09-6.37-11.83-13.27-18.76-18.57-12.84-9.82-28.82-3.63-32.53,12.13-2.1,8.94.79,16.67,7.06,23.32,11.07,11.75,22.02,23.62,33.01,35.44.89.96,1.7,2,2.75,3.24-3.87,3.64-7.6,7.14-11.73,11.02-20.44-21.86-40.74-43.55-61.51-65.77Z"/>
  <path class="b" d="m1611.12,540.26c-3.03-4.7-5.81-9-8.8-13.63,25.17-16.28,50.12-32.42,75.53-48.86,2.41,3.71,4.89,7.54,7.54,11.62-3.61,2.75-7,5.34-11.31,8.64,3.69.53,6.46.63,9.06,1.34,12.32,3.38,20.68,11.13,24.47,23.37,3.66,11.82.19,21.96-8.2,30.61-2.19,2.26-4.52,4.5-7.13,6.22-15.99,10.5-32.08,20.84-48.57,31.52-2.95-4.62-5.76-9.03-8.82-13.83,9.96-6.43,19.58-12.63,29.2-18.83,4.76-3.06,9.53-6.1,14.28-9.17,1.39-.9,2.78-1.84,4.08-2.87,11.55-9.1,13.87-19.55,6.64-29.8-7.15-10.13-20.86-12.7-32.01-5.72-12.27,7.68-24.38,15.62-36.56,23.44-2.93,1.88-5.88,3.73-9.4,5.95Z"/>
  <path class="b" d="m726.93,148.66c4.45-1.1,8.75-2.16,13.41-3.31,1.52,4.49,2.93,8.68,4.54,13.43.73-1.47,1.25-2.46,1.72-3.47,6.18-13.21,16.72-20.11,31.14-20.4,13.93-.29,23.55,7.07,28.54,19.56,3.61,9.05,5.71,18.72,8.23,28.19,3.02,11.37,5.76,22.81,8.72,34.57-5.4,1.35-10.32,2.59-15.78,3.96-2.73-10.83-5.33-21.28-7.99-31.71-2.01-7.89-3.73-15.89-6.26-23.62-2.52-7.67-6.83-14.18-15.57-16.02-16.21-3.42-30.08,12.38-25.93,29.68,3.85,16.01,7.95,31.96,11.93,47.93.32,1.27.54,2.56.92,4.38-5.14,1.33-10.06,2.6-15.51,4.01-7.36-29.03-14.65-57.78-22.11-87.18Z"/>
  <path class="b" d="m1719.72,1174.29c1.04-4.84,2.12-9.82,3.27-15.15,16.54,3.53,32.76,7.03,49,10.44,3.25.68,6.55,1.3,9.85,1.45,10.56.51,17.65-3.62,20.96-11.89,3.62-9.05,1.68-19.28-6.02-25.37-4-3.17-9.17-5.44-14.17-6.65-16.46-3.96-33.09-7.26-50.35-10.96,1.12-5.36,2.18-10.46,3.31-15.88,29.37,6.2,58.4,12.34,87.94,18.58-.89,4.24-1.79,8.55-2.79,13.3-4.52-.49-8.71-.94-12.49-1.34,2.7,5.8,6.38,11.17,7.74,17.08,5.33,23.14-10.94,42.41-34.7,39.44-20.38-2.54-40.39-8.03-60.55-12.23-.28-.06-.5-.4-1-.82Z"/>
  <path class="b" d="m1040.04,1842.16c19.17-2.17,38.34-4.34,58.27-6.6.63,3.75,1.3,7.71,2.15,12.68-28.98,2.84-57.41,5.62-85.97,8.41-1.42-5.93-1.35-9.85,3.28-13.98,12.53-11.19,24.57-22.96,36.34-34.95,6.44-6.56,11.26-14.47,13.63-23.55,2.38-9.1,2.55-18.03-4.73-25.19-7.41-7.29-16.63-8.33-26.02-5.18-6.68,2.24-12.91,5.8-19.68,8.94-1.44-2.63-3.18-5.81-5.1-9.3,8.75-7.53,18.82-11.7,29.84-13.18,5.34-.72,11.07-.71,16.3.44,21.18,4.67,31.7,23.21,25.49,44.19-3.64,12.3-11.16,22.28-19.71,31.47-6.8,7.31-14.02,14.24-21.12,21.28-1.15,1.14-2.62,1.95-3.94,2.91l.97,1.62Z"/>
  <path class="b" d="m1823.83,736.75c-2.97-11.18-5.55-21.66-8.62-32-1.13-3.8-.62-5.53,3.45-6.09,2.74-.38,5.4-1.34,8.57-2.16,8.05,29.83,16,59.31,24.11,89.38-4.4,1.18-8.63,2.31-13.2,3.54-3.44-12.56-6.71-24.52-10.08-36.85-36.03,9.69-71.59,19.25-107.64,28.94-1.48-5.47-2.8-10.36-4.24-15.72,35.99-9.71,71.55-19.3,107.65-29.04Z"/>
  <path class="b" d="m844.21,1729.06c-.74,3.65-1.48,7.36-2.36,11.68-12.28-2.62-24.25-5.17-36.92-7.87-8.18,33.35-16.31,66.52-24.6,100.33-6.08-1.53-11.79-2.97-17.9-4.52,8.95-33.4,17.8-66.42,26.76-99.83-12.15-3.65-23.87-7.17-36.26-10.89,1.37-4.15,2.59-7.85,3.75-11.37,29.22,7.5,58.13,14.92,87.54,22.47Z"/>
  <path class="b" d="m634.33,281.98c-4.86,2.43-9.42,4.71-14.41,7.2-11.51-23.13-22.9-46.02-34.52-69.37-3.76,1.81-7.28,3.51-11.29,5.44-1.86-3.67-3.62-7.14-5.51-10.87,3.77-1.98,7.27-3.83,10.27-5.41-2.33-7.62-5.28-14.75-6.63-22.17-3.34-18.3,11.43-35.32,30.65-35.53,1.08,3.61,2.21,7.36,3.33,11.09-21.25,7.97-24.71,19.6-11.46,38.68,6.17-2.97,12.4-5.98,19-9.15,1.83,3.58,3.56,6.95,5.57,10.87-6.4,3.26-12.68,6.46-19.42,9.9,5.86,11.73,11.59,23.16,17.27,34.6,5.68,11.44,11.32,22.89,17.16,34.71Z"/>
  <path class="b" d="m867.86,210.73c-5.43.81-10.32,1.54-15.86,2.36-3.66-25.55-7.28-50.8-10.98-76.57-4.23.47-8.12.9-12.45,1.38-.57-3.92-1.12-7.64-1.73-11.86,4.16-.75,8-1.44,11.27-2.03,0-5.49-.03-10.59,0-15.69.18-23.13,17.85-36.95,40.68-31.73v12.16c-3.84,0-7.3-.31-10.69.06-7.05.78-12.14,4.74-13.07,11.74-.89,6.75-.19,13.71-.19,21.08,7.8-1,14.66-1.87,21.85-2.79.62,4.07,1.16,7.64,1.81,11.93-7.02,1.11-13.83,2.19-21.45,3.39,3.58,25.36,7.15,50.63,10.81,76.56Z"/>
  <path class="b" d="m1344.7,284.39c-1.27,3.09-2.34,6.03-3.71,8.82-.4.82-1.65,1.66-2.56,1.73-13.88,1-27.83-14.36-25.09-27.89.91-4.5,2.59-8.96,4.58-13.12,6.12-12.75,12.58-25.34,18.89-38,1.03-2.07,1.98-4.17,3.16-6.66-3.99-2.13-7.76-4.13-12.08-6.43,1.77-3.61,3.47-7.09,5.38-10.99,4.16,1.97,8,3.8,12.48,5.93,2.69-5.36,5.39-10.44,7.8-15.65,1.17-2.55,2.64-3.52,5.42-2.79,3.99,1.03,8.05,1.82,12.47,2.81-3.83,7.73-7.44,15-11.35,22.9,6.83,3.46,13.58,6.88,20.88,10.58-1.85,3.7-3.58,7.18-5.53,11.09-7.04-3.48-13.7-6.77-20.73-10.23-.92,1.64-1.76,3.03-2.49,4.48-6.41,12.8-12.81,25.61-19.18,38.43-.96,1.93-1.91,3.9-2.58,5.94-2.66,8.03-.66,12.62,7.01,16.16,2.24,1.03,4.57,1.85,7.22,2.91Z"/>
  <path class="b" d="m231.87,561.65c-2.31,3.89-4.5,7.56-6.97,11.71-3.61-2.05-6.98-3.97-10.74-6.11,2.3-4.03,4.41-7.75,6.84-12-6.12-3.62-12.07-7.14-18.47-10.93,1.35-5.04,2.71-10.1,4.25-15.88,7.58,4.35,14.73,8.46,22.28,12.79,3.97-6.72,7.83-13.27,11.87-20.12,3.56,2.08,6.95,4.06,10.65,6.22-3.89,6.78-7.59,13.23-11.58,20.2,2.12,1.26,4.05,2.42,6,3.56,11.36,6.6,22.72,13.21,34.11,19.78,2.16,1.24,4.37,2.43,6.65,3.41,8.51,3.64,13.39,1.86,17.58-6.35.97-1.91,1.79-3.9,2.68-5.87.61.04,1.15-.06,1.58.12,10.34,4.39,10.65,5.27,5.57,15.41-7.43,14.81-18.54,19.17-33.33,11.6-15.09-7.72-29.55-16.67-44.29-25.06-1.42-.81-2.89-1.54-4.67-2.48Z"/>
  <path class="b" d="m1453.52,351.11c-4.69,13.14-2.99,13.07-15.72,7.73-14.99-6.29-27.23-16.03-31.19-32.71-4.51-18.98,3.1-34.44,16.73-46.97,13.13-12.07,28.73-14.84,45.53-8.77,12.1,4.37,21.63,12.21,29,23.64-3.26,2.67-6.4,5.25-9.76,8.01-10.96-14.47-23.76-25.73-43.04-17.85-14.49,5.93-23.18,18.08-23.19,33.88-.01,19.98,14.52,27.99,31.64,33.04Z"/>
  <path class="b" d="m152.44,721.78c3.65,2.18,7.05,4.22,10.51,6.29-9.5,14.88-15.26,29.98-2.6,45.56,9.38,11.54,28.1,15.92,41.52,10.66,14.12-5.53,20.15-18.2,19.3-40.88h11.64c5.4,20.66-5.79,46.88-23.54,55.49-19.55,9.48-47.43,2.42-60.75-15.4-12.46-16.66-10.79-45.63,3.92-61.71Z"/>
  <path class="b" d="m1760.67,973.14c-3.35.96-6.45,2.13-9.65,2.6-1.06.16-3.06-1.22-3.49-2.33-5.53-14.22-7.42-28.78-1.53-43.27,6.82-16.77,20.6-24.5,37.85-25.78,44.92-3.36,59.6,36.66,49.61,66.81-.2.59-.59,1.12-1.01,1.9-3.96-.98-7.78-1.92-11.87-2.93,4.97-17.54,5.36-33.86-11.92-44.84-11.83-7.51-30.98-6.27-41.49,2.45-15.45,12.82-13.04,28.7-6.49,45.4Z"/>
  <path class="b" d="m1460.38,370.73c3.87-2.32,7.4-4.43,10.72-6.41,2.79,4.76,4.81,9.65,8.1,13.42,3.41,3.9,7.74,7.29,12.26,9.84,4.31,2.43,9.12,1.56,12.95-1.99,3.77-3.49,6.04-7.73,4.29-12.94-1.47-4.38-3.73-8.5-5.22-12.87-2.18-6.39-5.34-12.83-5.71-19.38-.88-15.59,15.49-26.43,31.67-21.82,11.58,3.3,23,14.55,26.85,26.82-3.27,1.9-6.64,3.87-9.34,5.44-4.24-5.46-7.69-10.99-12.2-15.45-5.87-5.79-13.06-5.88-17.94-1.41-3.75,3.43-4.72,7.67-3.08,12.27,1.5,4.21,3.98,8.07,5.35,12.31,2.22,6.87,5.64,13.97,5.41,20.87-.52,15.61-16.2,26.37-31.31,22.1-15.93-4.5-26.11-15.69-32.81-30.81Z"/>
  <path class="b" d="m116.76,931.01c3.79,1.42,7.34,2.74,10.49,3.91-1.54,5.52-3.36,10.65-4.3,15.92-.53,2.98-.05,6.34.75,9.32,1.25,4.68,4.57,7.71,9.45,8.55,4.78.82,8.72-1.11,11.09-5.09,2.79-4.69,4.91-9.77,7.27-14.7,3.88-8.09,8.33-15.71,17.56-18.69,15.67-5.06,30.44,4.06,33.97,20.97,2.35,11.23.94,22.13-3.21,32.79-1.38,3.55-3.2,4.63-6.73,2.9-2.35-1.15-4.91-1.9-6.79-2.61,1.94-6.65,4.29-12.85,5.41-19.26.65-3.74,0-8.05-1.25-11.7-3.33-9.74-15.67-11.78-22.02-3.64-2.71,3.47-4.29,7.82-6.39,11.76-2.26,4.24-4.07,8.82-6.86,12.67-10.68,14.74-31.58,13.28-40.55-2.63-6.28-11.13-5.46-29.16,2.11-40.46Z"/>
  <path class="b" d="m116.54,1013.34c3.95,1.05,7.62,2.03,10.58,2.81-.95,6.14-2.4,11.95-2.54,17.79-.08,3.42,1.25,7.31,3.1,10.26,4.42,7.03,14.42,6.89,18.73-.2,2.21-3.64,3.42-7.88,5.07-11.86,1.96-4.75,3.4-9.79,5.95-14.2,9.18-15.87,30.82-17.02,41.92-2.45,8.48,11.13,9.86,34.3,2.53,47.03-3.82-.93-7.76-1.9-10.87-2.66,1.21-7.26,2.42-14.06,3.42-20.89.23-1.59-.11-3.33-.44-4.94-1.63-7.8-5.82-12.29-11.93-12.95-6.4-.68-11.69,2.84-14.78,10.33-1.83,4.44-3.03,9.14-4.75,13.63-5.51,14.38-14.7,21.1-26.55,19.57-12.48-1.61-21.68-11.88-23.44-26.17-1.14-9.23.24-18.28,4.01-25.1Z"/>
  <path class="b" d="m1229.86,1713.74c-5.83,5.97-11.14,11.4-16.77,17.16-2.44-3.6-4.55-6.7-7.64-11.25,6.89-6.41,13.52-13.24,20.89-19.14,3.46-2.77,8.35-3.78,13.12-5.81,13.78,34.87,27.38,69.28,41.25,104.38-5.61,2.16-10.94,4.21-16.83,6.47-11.34-30.6-22.53-60.79-34.02-91.81Z"/>
  <path class="b" d="m1667.44,1311.83c2.48-5.17,4.7-9.79,7.08-14.74,39.8,18.85,79.25,37.54,119.26,56.49-2.39,5.02-4.63,9.72-7.03,14.77-39.89-18.9-79.36-37.59-119.31-56.51Z"/>
  <path class="b" d="m246.19,1232.56c1.96,5.27,3.69,9.91,5.7,15.31-41.33,15.14-82.44,30.2-123.91,45.39-1.92-5.17-3.69-9.95-5.68-15.32,41.24-15.1,82.23-30.12,123.9-45.38Z"/>
  <path class="b" d="m662.94,133.67c5.22-1.9,9.99-3.64,15.18-5.53,14.12,39.33,28.13,78.36,42.33,117.91-5.07,1.82-9.82,3.53-15.2,5.46-14.16-39.43-28.16-78.43-42.31-117.83Z"/>
  <path class="b" d="m344.81,1613.86c-3.72-3.92-7.25-7.64-10.43-10.99,29.11-29.11,58.46-58.47,87.93-87.94,3.02,3.2,6.62,7.01,10.05,10.65-28.88,29.12-58.14,58.61-87.56,88.27Z"/>
  <path class="b" d="m1010.29,114.33c4.37.3,8.66.6,13.33.93v17.72c7.16-12.66,16.13-20.4,31.21-17.46-.28,5.08-.55,9.96-.82,14.84-18.16-1.21-28.44,7.75-29.76,25.81-1.18,16.06-2.14,32.14-3.24,48.89-5.22-.35-10.24-.69-15.82-1.07,1.71-29.98,3.39-59.45,5.11-89.66Z"/>
  <path class="b" d="m248.76,710.15c-1.91,5.4-3.56,10.06-5.45,15.38-28.29-9.98-56.26-19.85-84.76-29.91,1.78-5.1,3.5-10.01,5.39-15.42,28.29,9.99,56.25,19.86,84.82,29.95Z"/>
  <path class="b" d="m1402.74,228.07c4.77,2.81,9.17,5.41,14.09,8.32-15.32,26.02-30.44,51.71-45.65,77.55-4.83-2.87-9.23-5.48-14.07-8.35,15.29-25.97,30.41-51.67,45.63-77.52Z"/>
  <path class="b" d="m338.44,537.01c-3.18,4.69-5.97,8.81-9.18,13.54-24.76-16.71-49.34-33.3-74.56-50.31,3.06-4.56,5.97-8.88,9.13-13.59,24.96,16.85,49.57,33.46,74.6,50.36Z"/>
  <path class="b" d="m459.4,1648.49c7.45-9.63,14.75-19.07,22.06-28.51,4.28-5.52,8.64-10.99,12.84-16.57,3.29-4.37,7.48-6.89,12.96-7.46,5.1-.53,10.18-1.34,15.86-2.11,1.57,12,5.42,23.22-4.26,34.09-10.71,12.03-19.96,25.34-29.86,38.09-.78,1-1.66,1.92-2.58,2.99-2.96-6.37-1.39-11.15,2.9-16.26,8.99-10.69,17.25-21.98,25.85-33,2.92-3.75,3.98-7.69,1.32-11.96-3.55-5.69-10.98-5.9-15.55-.17-8.82,11.05-17.75,22.05-25.92,33.57-3.99,5.62-8.51,8.11-15.62,7.3Z"/>
  <path class="b" d="m1445.05,1671.71c-7.63-10.93-15.32-21.94-23-32.95-2.57-3.69-4.85-7.61-7.74-11.03-5.21-6.18-6.1-13.04-4.41-20.62.86-3.87,1.46-7.8,2.27-12.23,11.87,2.17,23.73,1.76,31.27,14.3,8.98,14.92,19.71,28.79,29.79,43.25-7.3.71-11.64-2.3-15.38-8.25-7.25-11.54-15.43-22.51-23.26-33.69-4.02-5.74-9.28-7.13-14.02-3.81-4.69,3.27-5.27,8.83-1.37,14.47,7.47,10.82,14.89,21.68,22.59,32.34,3.96,5.49,8.29,10.61,3.27,18.23Z"/>
  <path class="b" d="m526.4,1622.69c2.19,6.81,1.71,11.89-2.77,17.4-14.69,18.06-28.98,36.47-42.81,55.2-4.37,5.92-9.64,7.98-17.4,8.65,21.23-27.39,41.96-54.14,62.98-81.24Z"/>
  <path class="b" d="m494.52,1598.25c-21.05,27.13-41.62,53.64-62.93,81.11-.44-6.9-1.61-12.08,2.86-17.59,15.12-18.62,29.81-37.61,44.13-56.84,4.04-5.42,8.58-7.28,15.94-6.68Z"/>
  <path class="b" d="m1407.61,1623.29c19.79,28.4,39.19,56.24,58.87,84.49-7.63-.95-13-3.48-17.25-9.9-12.93-19.54-26.38-38.74-40.19-57.67-4.05-5.56-3.66-10.43-1.44-16.92Z"/>
  <path class="b" d="m1499.48,1684.82c-19.86-28.49-39.21-56.24-58.98-84.6,6.63.46,11.45,1.31,15.31,7.15,12.84,19.41,26.18,38.49,39.9,57.29,4.44,6.09,5.6,12.03,3.78,20.16Z"/>
  <path class="b" d="m431.26,1710.27c.96-1.9,1.64-4.01,2.91-5.66,9.92-12.94,20.01-25.75,29.86-38.75,1.16-1.52,1.14-3.94,1.66-5.94-2.08.45-4.4.46-6.18,1.44-3.98,2.21-7.69,4.91-12.22,6.64,2.52-3.2,4.86-6.56,7.6-9.57,5.11-5.62,13.58-6.45,19.47-2.15,6.09,4.44,7.86,13.03,3.69,19.61-2.29,3.62-5.15,6.88-8.65,9.88,1.61-4.63,3.45-9.2,4.73-13.92.48-1.77-.35-3.88-.59-5.84-1.59.85-3.68,1.32-4.71,2.62-10.33,13.04-20.44,26.26-30.74,39.33-1.26,1.6-3.27,2.61-4.93,3.9-.63-.53-1.27-1.06-1.9-1.58Z"/>
  <path class="b" d="m1460.32,1689.46c-2.33-3.41-4.87-6.7-6.94-10.27-3.95-6.82-1.97-15.31,4.27-19.47,6.44-4.3,14.67-3.1,19.72,3.08,2.41,2.95,4.44,6.2,5.98,10.18-3.3-2.24-6.62-4.45-9.9-6.73-.81-.56-1.38-1.69-2.24-1.93-1.59-.45-3.3-.44-4.96-.62.2,1.6-.13,3.57.68,4.76,9.37,13.74,18.96,27.34,28.36,41.06,1.28,1.88,1.85,4.25,2.74,6.39-.57.45-1.15.9-1.72,1.35-1.75-1.57-3.86-2.88-5.18-4.75-9.43-13.3-18.64-26.75-28.09-40.03-1.05-1.48-3.21-2.17-4.85-3.23-.27,2.13-1.1,4.38-.68,6.37.94,4.52,2.49,8.9,3.8,13.34-.33.16-.65.33-.98.49Z"/>
  <path class="b" d="m984.25,1858.7c-7.14-.04-11.97-4.23-12.05-10.44-.08-6.54,5.29-11.26,12.59-11.09,7.09.17,11.95,4.85,11.78,11.38-.15,6.11-5.1,10.19-12.33,10.15Z"/>
  <path class="b" d="m984.01,1797.91c-6.57.11-11.4-4.29-11.52-10.47-.12-6.44,4.66-11.06,11.45-11.06,6.54,0,11.14,4.39,11.28,10.75.13,6.12-4.6,10.67-11.21,10.78Z"/>
  <path class="b" d="m147.34,679.28c-.06,6-4.21,10.39-9.84,10.41-5.65.02-10.3-4.49-10.31-10-.02-5.95,4.25-10.4,9.87-10.3,6.12.11,10.34,4.17,10.28,9.9Z"/>
  <path class="b" d="m237.99,469.08c5.72.06,10.34,4.47,10.35,9.88,0,5.79-4.8,10.83-10.19,10.68-5.56-.16-10.03-4.76-10.01-10.29.03-5.78,4.38-10.32,9.85-10.26Z"/>
  <path class="b" d="m1432.63,209.89c.07,5.8-4.18,10.59-9.49,10.7-5.74.12-10.75-4.58-10.75-10.09,0-5.6,4.42-10.22,9.89-10.33,5.73-.12,10.28,4.16,10.35,9.71Z"/>
  <path class="b" d="m816.36,1050.05v-7.44c0-179.97,0-359.95,0-539.92,0-42.3,14.59-79.02,43.93-109.27,36.43-37.55,73.64-74.33,110.53-111.44.8-.8,1.71-1.5,2.76-2.42,1.35,1.27,2.56,2.37,3.71,3.52,37.07,37.39,74.54,74.39,111.06,112.31,27.71,28.77,42.05,63.95,42.12,103.92.31,181.64.13,363.28.13,544.92,0,1.45-.13,2.91-.21,4.77-6.35-8-12.16-15.82-18.49-23.19-13.14-15.31-28.69-27.83-46.25-37.69-4.19-2.35-5.66-4.83-5.66-9.65.14-157.64.18-315.29.06-472.93-.03-34.89-14.45-62.36-45.06-79.82-51.49-29.37-117.59,3.11-126.67,61.88-.91,5.9-1.25,11.93-1.25,17.91-.07,157.31-.08,314.62.07,471.93,0,5.27-1.33,8.14-6.1,10.85-25.18,14.31-45.7,33.76-61.8,57.86-.62.93-1.34,1.81-2.89,3.9Z"/>
  <path class="b" d="m787.99,466.18v960.62c-5.96-7.3-11.3-13.82-16.63-20.35-18.85-23.11-37.75-46.18-56.46-69.4-1.6-1.99-2.67-5.03-2.67-7.58-.12-260.82-.12-521.63,0-782.45,0-2.35,1.07-5.31,2.68-6.96,20.74-21.2,41.67-42.22,62.56-63.28,3.27-3.3,6.55-6.6,10.52-10.59Z"/>
  <path class="b" d="m1158.75,467.88c16.81,16.41,33.76,32.9,50.63,49.46,7.37,7.24,14.72,14.51,21.76,22.06,1.71,1.83,3.09,4.8,3.09,7.25.14,260.97.13,521.94.06,782.9,0,2.16-.52,4.8-1.81,6.4-23.76,29.42-47.67,58.71-71.56,88.03-.51.62-1.1,1.18-2.18,2.32V467.88Z"/>
  <path class="b" d="m1107.54,1268.38c-4.41-11.06-8.82-22.11-13.22-33.18-10.81-27.21-21.84-54.32-32.22-81.69-2.36-6.22-2.43-13.3-3.51-19.99-2.38-14.8-8.43-27.97-17.68-39.68-6.24-7.9-16.59-10.99-26.03-7.99-10.11,3.22-16.54,11.68-17.23,22.76-.12,1.99-.04,4-.04,6,0,167.82-.02,335.63.08,503.45,0,4.6-1.07,8.17-4.15,11.7-6.78,7.77-13.1,15.96-20.02,24.49-6.07-7.4-11.66-14.83-17.92-21.64-4.83-5.25-6.4-10.83-6.39-17.94.19-167.65.15-335.3.14-502.95,0-13.42-6.48-23.01-18.14-26.07-9.47-2.48-17.84-.2-24.31,7.46-12.48,14.78-18.72,31.98-19.74,51.22-.15,2.76-.77,5.62-1.79,8.2-15.07,38.23-30.24,76.41-45.39,114.6-.18.46-.5.86-.75,1.29-.24-.17-.66-.32-.66-.47.01-41.99-1.12-84.03.37-125.96,2.35-65.98,49.48-118.36,114.33-129.5,54.26-9.32,111.32,19.31,138.28,69.35,11.2,20.79,16.81,42.97,16.81,66.58,0,38.33,0,76.66,0,114.99v4.8c-.27.06-.55.12-.82.18Z"/>
</svg>